<svg xmlns="http://www.w3.org/2000/svg" xmlns:xlink="http://www.w3.org/1999/xlink" xmlns:lucid="lucid" width="860" height="387.33"><g transform="translate(20 20)" lucid:page-tab-id="0_0"><path d="M140 0h160v40H140z" stroke="#000" stroke-width="2" fill="#fff"/><use xlink:href="#a" transform="matrix(1,0,0,1,145,5) translate(55.55 18.15)"/><path d="M300 141.33h160v40H300z" stroke="#000" stroke-width="2" fill="#fff"/><use xlink:href="#b" transform="matrix(1,0,0,1,305,146.33333333331393) translate(55.55 18.15)"/><path d="M300 230.67h160v40H300z" stroke="#000" stroke-width="2" fill="#fff"/><use xlink:href="#c" transform="matrix(1,0,0,1,305,235.66666666671517) translate(24.624999999999993 18.15)"/><path d="M300 307.33h160v40H300z" stroke="#000" stroke-width="2" fill="#fff"/><use xlink:href="#d" transform="matrix(1,0,0,1,305,312.33333333343035) translate(24.574999999999996 18.15)"/><path d="M480 230.67h160v40H480z" stroke="#000" stroke-width="2" fill="#fff"/><use xlink:href="#e" transform="matrix(1,0,0,1,485,235.66666666671517) translate(27.099999999999994 18.15)"/><path d="M244.58 41.6l120.47 87.83" stroke="#000" stroke-width="2" fill="none"/><path d="M244 42.4L242.1 41h2.96z"/><path d="M377.4 138.43l-14.27-4.66 5.46-7.5z" stroke="#000" stroke-width="2"/><path d="M380 183.33v27.83" stroke="#000" stroke-width="2" fill="none"/><path d="M381 183.36h-2v-1.03h2z"/><path d="M380 226.43l-4.64-14.27h9.28z" stroke="#000" stroke-width="2"/><path d="M380 272.67v15.16" stroke="#000" stroke-width="2" fill="none"/><path d="M381 272.7h-2v-1.03h2z"/><path d="M380 303.1l-4.64-14.27h9.28z" stroke="#000" stroke-width="2"/><path d="M380.97 182.6l161.14 42.36" stroke="#000" stroke-width="2" fill="none"/><path d="M380.74 183.56l-3.9-1.02.06-.2h4.16z"/><path d="M556.87 228.84l-14.98.86 2.35-8.97z" stroke="#000" stroke-width="2"/><path d="M182.45 141.33H290v206H182.45z" fill="none"/><path d="M290 347.33c-7.1 0-12.88-5.76-12.88-12.87V257.2c0-7.1-5.76-12.87-12.87-12.87 7.1 0 12.87-5.76 12.87-12.87V154.2c0-7.1 5.77-12.87 12.88-12.87" stroke="#000" stroke-width="2" fill="none"/><use xlink:href="#f" transform="matrix(1,0,0,1,187.45120190859475,146.33333333325572) translate(15.049999999999997 80.5)"/><use xlink:href="#g" transform="matrix(1,0,0,1,187.45120190859475,146.33333333325572) translate(34 80.5)"/><use xlink:href="#h" transform="matrix(1,0,0,1,187.45120190859475,146.33333333325572) translate(7 102.1)"/><use xlink:href="#i" transform="matrix(1,0,0,1,187.45120190859475,146.33333333325572) translate(18.049999999999997 123.7)"/><path d="M580 134.67h240V220H580z" fill="#fff" fill-opacity="0"/><path d="M604 134.67h-24V220h24" stroke="#fff" stroke-width="2" fill="none"/><use xlink:href="#j" transform="matrix(1,0,0,1,600,139.66666666666663) translate(0 20)"/><use xlink:href="#k" transform="matrix(1,0,0,1,600,139.66666666666663) translate(93.85000000000001 20)"/><use xlink:href="#l" transform="matrix(1,0,0,1,600,139.66666666666663) translate(117.85000000000001 20)"/><use xlink:href="#m" transform="matrix(1,0,0,1,600,139.66666666666663) translate(0 41.6)"/><use xlink:href="#n" transform="matrix(1,0,0,1,600,139.66666666666663) translate(20 41.6)"/><use xlink:href="#o" transform="matrix(1,0,0,1,600,139.66666666666663) translate(77 41.6)"/><use xlink:href="#p" transform="matrix(1,0,0,1,600,139.66666666666663) translate(97 41.6)"/><use xlink:href="#q" transform="matrix(1,0,0,1,600,139.66666666666663) translate(0 63.2)"/><use xlink:href="#r" transform="matrix(1,0,0,1,600,139.66666666666663) translate(67.85 63.2)"/><path d="M578 161.37l-115.18-.04" stroke="#999" stroke-width="2" fill="none"/><path d="M579 160.37v2h-1.03v-2z" fill="#999"/><path d="M480.18 151.16l-17.22 10.17 17.22 10.2M678.67 221v106.33H462.82" stroke="#999" stroke-width="2" fill="none"/><path d="M679.67 221.03h-2V220h2z" fill="#999"/><path d="M480.18 317.15l-17.22 10.18 17.22 10.18" stroke="#999" stroke-width="2" fill="none"/><path d="M0 270.67h160v40H0z" stroke="#000" stroke-width="2" fill="#fff"/><use xlink:href="#s" transform="matrix(1,0,0,1,5,275.6666666667152) translate(30.599999999999994 18.15)"/><path d="M0 141.33h160v40H0z" stroke="#000" stroke-width="2" fill="#fff"/><use xlink:href="#t" transform="matrix(1,0,0,1,5,146.33333333331393) translate(26.099999999999994 18.15)"/><path d="M219.18 41.58l-124.1 88.05" stroke="#000" stroke-width="2" fill="none"/><path d="M219.74 42.4l-1-1.4h3z"/><path d="M82.64 138.46l8.95-12.03 5.36 7.56z" stroke="#000" stroke-width="2"/><path d="M80 183.33v67.83" stroke="#000" stroke-width="2" fill="none"/><path d="M81 183.36h-2v-1.03h2z"/><path d="M80 266.43l-4.64-14.27h9.28z" stroke="#000" stroke-width="2"/><path d="M195.9 72.96l-43.76 29.18M195.9 72.97l.84-.57" stroke="#000" stroke-width="2" fill="none"/><path d="M139.44 110.6l9.3-11.76 5.14 7.7z" stroke="#000" stroke-width="2"/><path d="M165 85h55v20h-55z" stroke="#000" stroke-opacity="0" stroke-width="2" fill="#fff" fill-opacity="0"/><g><use xlink:href="#u" transform="matrix(1,0,0,1,170,90) translate(5.759259259259256 10.666666666666668)"/></g><path d="M92 201v22.5M92 201.03V200" stroke="#000" stroke-width="2" fill="none"/><path d="M92 238.76l-4.64-14.26h9.28z" stroke="#000" stroke-width="2"/><path d="M89 200h80v20H89z" stroke="#000" stroke-opacity="0" stroke-width="2" fill="#fff" fill-opacity="0"/><g><use xlink:href="#v" transform="matrix(1,0,0,1,94,205) translate(4.185185185185183 10.666666666666668)"/><use xlink:href="#w" transform="matrix(1,0,0,1,94,205) translate(45.074074074074076 10.666666666666668)"/><use xlink:href="#x" transform="matrix(1,0,0,1,94,205) translate(59.14814814814815 10.666666666666668)"/></g><defs><path d="M210-169c-67 3-38 105-44 169h-31v-121c0-29-5-50-35-48C34-165 62-65 56 0H25l-1-190h30c1 10-1 24 2 32 10-44 99-50 107 0 11-21 27-35 58-36 85-2 47 119 55 194h-31v-121c0-29-5-49-35-48" id="y"/><path d="M141-36C126-15 110 5 73 4 37 3 15-17 15-53c-1-64 63-63 125-63 3-35-9-54-41-54-24 1-41 7-42 31l-33-3c5-37 33-52 76-52 45 0 72 20 72 64v82c-1 20 7 32 28 27v20c-31 9-61-2-59-35zM48-53c0 20 12 33 32 33 41-3 63-29 60-74-43 2-92-5-92 41" id="z"/><path d="M24-231v-30h32v30H24zM24 0v-190h32V0H24" id="A"/><path d="M117-194c89-4 53 116 60 194h-32v-121c0-31-8-49-39-48C34-167 62-67 57 0H25l-1-190h30c1 10-1 24 2 32 11-22 29-35 61-36" id="B"/><g id="a"><use transform="matrix(0.05,0,0,0.05,0,0)" xlink:href="#y"/><use transform="matrix(0.05,0,0,0.05,14.950000000000001,0)" xlink:href="#z"/><use transform="matrix(0.05,0,0,0.05,24.950000000000003,0)" xlink:href="#A"/><use transform="matrix(0.05,0,0,0.05,28.900000000000002,0)" xlink:href="#B"/></g><path d="M85-194c31 0 48 13 60 33l-1-100h32l1 261h-30c-2-10 0-23-3-31C134-8 116 4 85 4 32 4 16-35 15-94c0-66 23-100 70-100zm9 24c-40 0-46 34-46 75 0 40 6 74 45 74 42 0 51-32 51-76 0-42-9-74-50-73" id="C"/><path d="M114-163C36-179 61-72 57 0H25l-1-190h30c1 12-1 29 2 39 6-27 23-49 58-41v29" id="D"/><path d="M206 0h-36l-40-164L89 0H53L-1-190h32L70-26l43-164h34l41 164 42-164h31" id="E"/><g id="b"><use transform="matrix(0.05,0,0,0.05,0,0)" xlink:href="#C"/><use transform="matrix(0.05,0,0,0.05,10,0)" xlink:href="#D"/><use transform="matrix(0.05,0,0,0.05,15.949999999999998,0)" xlink:href="#z"/><use transform="matrix(0.05,0,0,0.05,25.950000000000003,0)" xlink:href="#E"/></g><path d="M135-143c-3-34-86-38-87 0 15 53 115 12 119 90S17 21 10-45l28-5c4 36 97 45 98 0-10-56-113-15-118-90-4-57 82-63 122-42 12 7 21 19 24 35" id="F"/><path d="M59-47c-2 24 18 29 38 22v24C64 9 27 4 27-40v-127H5v-23h24l9-43h21v43h35v23H59v120" id="G"/><path d="M30-248c118-7 216 8 213 122C240-48 200 0 122 0H30v-248zM63-27c89 8 146-16 146-99s-60-101-146-95v194" id="H"/><path d="M177-190C167-65 218 103 67 71c-23-6-38-20-44-43l32-5c15 47 100 32 89-28v-30C133-14 115 1 83 1 29 1 15-40 15-95c0-56 16-97 71-98 29-1 48 16 59 35 1-10 0-23 2-32h30zM94-22c36 0 50-32 50-73 0-42-14-75-50-75-39 0-46 34-46 75s6 73 46 73" id="I"/><g id="c"><use transform="matrix(0.05,0,0,0.05,0,0)" xlink:href="#F"/><use transform="matrix(0.05,0,0,0.05,9,0)" xlink:href="#G"/><use transform="matrix(0.05,0,0,0.05,14,0)" xlink:href="#z"/><use transform="matrix(0.05,0,0,0.05,24,0)" xlink:href="#D"/><use transform="matrix(0.05,0,0,0.05,29.950000000000003,0)" xlink:href="#G"/><use transform="matrix(0.05,0,0,0.05,34.95,0)" xlink:href="#H"/><use transform="matrix(0.05,0,0,0.05,47.900000000000006,0)" xlink:href="#D"/><use transform="matrix(0.05,0,0,0.05,53.85,0)" xlink:href="#z"/><use transform="matrix(0.05,0,0,0.05,63.85,0)" xlink:href="#E"/><use transform="matrix(0.05,0,0,0.05,76.80000000000001,0)" xlink:href="#A"/><use transform="matrix(0.05,0,0,0.05,80.75000000000001,0)" xlink:href="#B"/><use transform="matrix(0.05,0,0,0.05,90.75000000000001,0)" xlink:href="#I"/></g><path d="M100-194c62-1 85 37 85 99 1 63-27 99-86 99S16-35 15-95c0-66 28-99 85-99zM99-20c44 1 53-31 53-75 0-43-8-75-51-75s-53 32-53 75 10 74 51 75" id="J"/><path d="M108 0H70L1-190h34L89-25l56-165h34" id="K"/><path d="M100-194c63 0 86 42 84 106H49c0 40 14 67 53 68 26 1 43-12 49-29l28 8c-11 28-37 45-77 45C44 4 14-33 15-96c1-61 26-98 85-98zm52 81c6-60-76-77-97-28-3 7-6 17-6 28h103" id="L"/><path d="M127-220V0H93v-220H8v-28h204v28h-85" id="M"/><path d="M185-189c-5-48-123-54-124 2 14 75 158 14 163 119 3 78-121 87-175 55-17-10-28-26-33-46l33-7c5 56 141 63 141-1 0-78-155-14-162-118-5-82 145-84 179-34 5 7 8 16 11 25" id="N"/><g id="d"><use transform="matrix(0.05,0,0,0.05,0,0)" xlink:href="#y"/><use transform="matrix(0.05,0,0,0.05,14.950000000000001,0)" xlink:href="#J"/><use transform="matrix(0.05,0,0,0.05,24.950000000000003,0)" xlink:href="#K"/><use transform="matrix(0.05,0,0,0.05,33.95,0)" xlink:href="#L"/><use transform="matrix(0.05,0,0,0.05,43.95,0)" xlink:href="#M"/><use transform="matrix(0.05,0,0,0.05,52.900000000000006,0)" xlink:href="#J"/><use transform="matrix(0.05,0,0,0.05,62.900000000000006,0)" xlink:href="#N"/><use transform="matrix(0.05,0,0,0.05,74.9,0)" xlink:href="#G"/><use transform="matrix(0.05,0,0,0.05,79.9,0)" xlink:href="#z"/><use transform="matrix(0.05,0,0,0.05,89.9,0)" xlink:href="#D"/><use transform="matrix(0.05,0,0,0.05,95.85000000000001,0)" xlink:href="#G"/></g><g id="e"><use transform="matrix(0.05,0,0,0.05,0,0)" xlink:href="#L"/><use transform="matrix(0.05,0,0,0.05,10,0)" xlink:href="#B"/><use transform="matrix(0.05,0,0,0.05,20,0)" xlink:href="#C"/><use transform="matrix(0.05,0,0,0.05,30,0)" xlink:href="#H"/><use transform="matrix(0.05,0,0,0.05,42.95,0)" xlink:href="#D"/><use transform="matrix(0.05,0,0,0.05,48.900000000000006,0)" xlink:href="#z"/><use transform="matrix(0.05,0,0,0.05,58.900000000000006,0)" xlink:href="#E"/><use transform="matrix(0.05,0,0,0.05,71.85000000000001,0)" xlink:href="#A"/><use transform="matrix(0.05,0,0,0.05,75.80000000000001,0)" xlink:href="#B"/><use transform="matrix(0.05,0,0,0.05,85.80000000000001,0)" xlink:href="#I"/></g><g id="f"><use transform="matrix(0.05,0,0,0.05,0,0)" xlink:href="#A"/><use transform="matrix(0.05,0,0,0.05,3.95,0)" xlink:href="#B"/></g><path d="M106-169C34-169 62-67 57 0H25v-261h32l-1 103c12-21 28-36 61-36 89 0 53 116 60 194h-32v-121c2-32-8-49-39-48" id="O"/><g id="g"><use transform="matrix(0.05,0,0,0.05,0,0)" xlink:href="#G"/><use transform="matrix(0.05,0,0,0.05,5,0)" xlink:href="#O"/><use transform="matrix(0.05,0,0,0.05,15,0)" xlink:href="#L"/></g><path d="M115-194c55 1 70 41 70 98S169 2 115 4C84 4 66-9 55-30l1 105H24l-1-265h31l2 30c10-21 28-34 59-34zm-8 174c40 0 45-34 45-75s-6-73-45-74c-42 0-51 32-51 76 0 43 10 73 51 73" id="P"/><g id="h"><use transform="matrix(0.05,0,0,0.05,0,0)" xlink:href="#N"/><use transform="matrix(0.05,0,0,0.05,12,0)" xlink:href="#O"/><use transform="matrix(0.05,0,0,0.05,22,0)" xlink:href="#z"/><use transform="matrix(0.05,0,0,0.05,32,0)" xlink:href="#P"/><use transform="matrix(0.05,0,0,0.05,42,0)" xlink:href="#L"/></g><path d="M96-169c-40 0-48 33-48 73s9 75 48 75c24 0 41-14 43-38l32 2c-6 37-31 61-74 61-59 0-76-41-82-99-10-93 101-131 147-64 4 7 5 14 7 22l-32 3c-4-21-16-35-41-35" id="Q"/><path d="M24 0v-261h32V0H24" id="R"/><g id="i"><use transform="matrix(0.05,0,0,0.05,0,0)" xlink:href="#Q"/><use transform="matrix(0.05,0,0,0.05,9,0)" xlink:href="#R"/><use transform="matrix(0.05,0,0,0.05,12.949999999999998,0)" xlink:href="#z"/><use transform="matrix(0.05,0,0,0.05,22.95,0)" xlink:href="#F"/><use transform="matrix(0.05,0,0,0.05,31.950000000000003,0)" xlink:href="#F"/></g><path d="M140-251c81 0 123 46 123 126C263-46 219 4 140 4 59 4 17-45 17-125s42-126 123-126zm0 227c63 0 89-41 89-101s-29-99-89-99c-61 0-89 39-89 99S79-25 140-24" id="S"/><g id="j"><use transform="matrix(0.05,0,0,0.05,0,0)" xlink:href="#S"/><use transform="matrix(0.05,0,0,0.05,14,0)" xlink:href="#K"/><use transform="matrix(0.05,0,0,0.05,23,0)" xlink:href="#L"/><use transform="matrix(0.05,0,0,0.05,33,0)" xlink:href="#D"/><use transform="matrix(0.05,0,0,0.05,38.95,0)" xlink:href="#D"/><use transform="matrix(0.05,0,0,0.05,44.900000000000006,0)" xlink:href="#A"/><use transform="matrix(0.05,0,0,0.05,48.85000000000001,0)" xlink:href="#C"/><use transform="matrix(0.05,0,0,0.05,58.85,0)" xlink:href="#C"/><use transform="matrix(0.05,0,0,0.05,68.85000000000001,0)" xlink:href="#L"/><use transform="matrix(0.05,0,0,0.05,78.85000000000001,0)" xlink:href="#B"/></g><path d="M115-194c53 0 69 39 70 98 0 66-23 100-70 100C84 3 66-7 56-30L54 0H23l1-261h32v101c10-23 28-34 59-34zm-8 174c40 0 45-34 45-75 0-40-5-75-45-74-42 0-51 32-51 76 0 43 10 73 51 73" id="T"/><path d="M179-190L93 31C79 59 56 82 12 73V49c39 6 53-20 64-50L1-190h34L92-34l54-156h33" id="U"/><g id="k"><use transform="matrix(0.05,0,0,0.05,0,0)" xlink:href="#T"/><use transform="matrix(0.05,0,0,0.05,10,0)" xlink:href="#U"/></g><path d="M84 4C-5 8 30-112 23-190h32v120c0 31 7 50 39 49 72-2 45-101 50-169h31l1 190h-30c-1-10 1-25-2-33-11 22-28 36-60 37" id="V"/><g id="l"><use transform="matrix(0.05,0,0,0.05,0,0)" xlink:href="#F"/><use transform="matrix(0.05,0,0,0.05,9,0)" xlink:href="#V"/><use transform="matrix(0.05,0,0,0.05,19,0)" xlink:href="#T"/><use transform="matrix(0.05,0,0,0.05,29,0)" xlink:href="#Q"/><use transform="matrix(0.05,0,0,0.05,38,0)" xlink:href="#R"/><use transform="matrix(0.05,0,0,0.05,41.95,0)" xlink:href="#z"/><use transform="matrix(0.05,0,0,0.05,51.95,0)" xlink:href="#F"/><use transform="matrix(0.05,0,0,0.05,60.95,0)" xlink:href="#F"/><use transform="matrix(0.05,0,0,0.05,69.95,0)" xlink:href="#L"/><use transform="matrix(0.05,0,0,0.05,79.95,0)" xlink:href="#F"/></g><path d="M101-234c-31-9-42 10-38 44h38v23H63V0H32v-167H5v-23h27c-7-52 17-82 69-68v24" id="W"/><g id="m"><use transform="matrix(0.05,0,0,0.05,0,0)" xlink:href="#J"/><use transform="matrix(0.05,0,0,0.05,10,0)" xlink:href="#W"/></g><g id="n"><use transform="matrix(0.05,0,0,0.05,0,0)" xlink:href="#N"/><use transform="matrix(0.05,0,0,0.05,12,0)" xlink:href="#O"/><use transform="matrix(0.05,0,0,0.05,22,0)" xlink:href="#z"/><use transform="matrix(0.05,0,0,0.05,32,0)" xlink:href="#P"/><use transform="matrix(0.05,0,0,0.05,42,0)" xlink:href="#L"/></g><g id="o"><use transform="matrix(0.05,0,0,0.05,0,0)" xlink:href="#G"/><use transform="matrix(0.05,0,0,0.05,5,0)" xlink:href="#J"/></g><g id="p"><use transform="matrix(0.05,0,0,0.05,0,0)" xlink:href="#Q"/><use transform="matrix(0.05,0,0,0.05,9,0)" xlink:href="#V"/><use transform="matrix(0.05,0,0,0.05,19,0)" xlink:href="#F"/><use transform="matrix(0.05,0,0,0.05,28,0)" xlink:href="#G"/><use transform="matrix(0.05,0,0,0.05,33,0)" xlink:href="#J"/><use transform="matrix(0.05,0,0,0.05,43,0)" xlink:href="#y"/><use transform="matrix(0.05,0,0,0.05,57.95,0)" xlink:href="#A"/><use transform="matrix(0.05,0,0,0.05,61.900000000000006,0)" xlink:href="#F"/><use transform="matrix(0.05,0,0,0.05,70.9,0)" xlink:href="#L"/></g><g id="q"><use transform="matrix(0.05,0,0,0.05,0,0)" xlink:href="#C"/><use transform="matrix(0.05,0,0,0.05,10,0)" xlink:href="#D"/><use transform="matrix(0.05,0,0,0.05,15.949999999999998,0)" xlink:href="#z"/><use transform="matrix(0.05,0,0,0.05,25.950000000000003,0)" xlink:href="#E"/><use transform="matrix(0.05,0,0,0.05,38.9,0)" xlink:href="#A"/><use transform="matrix(0.05,0,0,0.05,42.85,0)" xlink:href="#B"/><use transform="matrix(0.05,0,0,0.05,52.85,0)" xlink:href="#I"/></g><g id="r"><use transform="matrix(0.05,0,0,0.05,0,0)" xlink:href="#T"/><use transform="matrix(0.05,0,0,0.05,10,0)" xlink:href="#L"/><use transform="matrix(0.05,0,0,0.05,20,0)" xlink:href="#O"/><use transform="matrix(0.05,0,0,0.05,30,0)" xlink:href="#z"/><use transform="matrix(0.05,0,0,0.05,40,0)" xlink:href="#K"/><use transform="matrix(0.05,0,0,0.05,49,0)" xlink:href="#A"/><use transform="matrix(0.05,0,0,0.05,52.95,0)" xlink:href="#J"/><use transform="matrix(0.05,0,0,0.05,62.95,0)" xlink:href="#V"/><use transform="matrix(0.05,0,0,0.05,72.95,0)" xlink:href="#D"/></g><g id="s"><use transform="matrix(0.05,0,0,0.05,0,0)" xlink:href="#C"/><use transform="matrix(0.05,0,0,0.05,10,0)" xlink:href="#D"/><use transform="matrix(0.05,0,0,0.05,15.949999999999998,0)" xlink:href="#z"/><use transform="matrix(0.05,0,0,0.05,25.950000000000003,0)" xlink:href="#E"/><use transform="matrix(0.05,0,0,0.05,38.9,0)" xlink:href="#M"/><use transform="matrix(0.05,0,0,0.05,47.85,0)" xlink:href="#z"/><use transform="matrix(0.05,0,0,0.05,57.85,0)" xlink:href="#D"/><use transform="matrix(0.05,0,0,0.05,63.800000000000004,0)" xlink:href="#I"/><use transform="matrix(0.05,0,0,0.05,73.80000000000001,0)" xlink:href="#L"/><use transform="matrix(0.05,0,0,0.05,83.80000000000001,0)" xlink:href="#G"/></g><g id="t"><use transform="matrix(0.05,0,0,0.05,0,0)" xlink:href="#C"/><use transform="matrix(0.05,0,0,0.05,10,0)" xlink:href="#D"/><use transform="matrix(0.05,0,0,0.05,15.949999999999998,0)" xlink:href="#z"/><use transform="matrix(0.05,0,0,0.05,25.950000000000003,0)" xlink:href="#E"/><use transform="matrix(0.05,0,0,0.05,38.9,0)" xlink:href="#M"/><use transform="matrix(0.05,0,0,0.05,47.85,0)" xlink:href="#z"/><use transform="matrix(0.05,0,0,0.05,57.85,0)" xlink:href="#D"/><use transform="matrix(0.05,0,0,0.05,63.800000000000004,0)" xlink:href="#I"/><use transform="matrix(0.05,0,0,0.05,73.80000000000001,0)" xlink:href="#L"/><use transform="matrix(0.05,0,0,0.05,83.80000000000001,0)" xlink:href="#G"/><use transform="matrix(0.05,0,0,0.05,88.80000000000001,0)" xlink:href="#F"/></g><g id="u"><use transform="matrix(0.03703703703703704,0,0,0.03703703703703704,0,0)" xlink:href="#M"/><use transform="matrix(0.03703703703703704,0,0,0.03703703703703704,7.629629629629631,0)" xlink:href="#V"/><use transform="matrix(0.03703703703703704,0,0,0.03703703703703704,15.03703703703704,0)" xlink:href="#D"/><use transform="matrix(0.03703703703703704,0,0,0.03703703703703704,19.444444444444446,0)" xlink:href="#G"/><use transform="matrix(0.03703703703703704,0,0,0.03703703703703704,23.148148148148152,0)" xlink:href="#R"/><use transform="matrix(0.03703703703703704,0,0,0.03703703703703704,26.074074074074083,0)" xlink:href="#L"/></g><path d="M68-38c1 34 0 65-14 84H32c9-13 17-26 17-46H33v-38h35" id="X"/><g id="v"><use transform="matrix(0.03703703703703704,0,0,0.03703703703703704,0,0)" xlink:href="#M"/><use transform="matrix(0.03703703703703704,0,0,0.03703703703703704,7.629629629629631,0)" xlink:href="#V"/><use transform="matrix(0.03703703703703704,0,0,0.03703703703703704,15.03703703703704,0)" xlink:href="#D"/><use transform="matrix(0.03703703703703704,0,0,0.03703703703703704,19.444444444444446,0)" xlink:href="#G"/><use transform="matrix(0.03703703703703704,0,0,0.03703703703703704,23.148148148148152,0)" xlink:href="#R"/><use transform="matrix(0.03703703703703704,0,0,0.03703703703703704,26.074074074074083,0)" xlink:href="#L"/><use transform="matrix(0.03703703703703704,0,0,0.03703703703703704,33.48148148148149,0)" xlink:href="#X"/></g><path d="M141 0L90-78 38 0H4l68-98-65-92h35l48 74 47-74h35l-64 92 68 98h-35" id="Y"/><g id="w"><use transform="matrix(0.03703703703703704,0,0,0.03703703703703704,0,0)" xlink:href="#Y"/><use transform="matrix(0.03703703703703704,0,0,0.03703703703703704,6.666666666666668,0)" xlink:href="#X"/></g><use transform="matrix(0.03703703703703704,0,0,0.03703703703703704,0,0)" xlink:href="#U" id="x"/></defs></g></svg>