<svg xmlns="http://www.w3.org/2000/svg" xmlns:xlink="http://www.w3.org/1999/xlink" xmlns:lucid="lucid" width="1040" height="700.4"><g transform="translate(20 20)" lucid:page-tab-id="HWEp-vi-RSFO"><path d="M0 0h200v222H0z" stroke="#333" stroke-width="2" fill="#fff"/><path d="M0 37.6h200M0 118.9h200" stroke="#333" stroke-width="2" fill="none"/><use xlink:href="#a" transform="matrix(1,0,0,1,8,8) translate(66 14.6)"/><use xlink:href="#b" transform="matrix(1,0,0,1,12,45.6) translate(32.55 15.000000000000002)"/><use xlink:href="#c" transform="matrix(1,0,0,1,12,45.6) translate(47.55 15.000000000000002)"/><use xlink:href="#d" transform="matrix(1,0,0,1,12,45.6) translate(93.5 15.000000000000002)"/><use xlink:href="#b" transform="matrix(1,0,0,1,12,45.6) translate(37.12499999999999 36.6)"/><use xlink:href="#e" transform="matrix(1,0,0,1,12,45.6) translate(52.12499999999999 36.6)"/><use xlink:href="#f" transform="matrix(1,0,0,1,12,45.6) translate(99.975 36.6)"/><use xlink:href="#b" transform="matrix(1,0,0,1,12,45.6) translate(29.424999999999997 58.2)"/><use xlink:href="#g" transform="matrix(1,0,0,1,12,45.6) translate(44.425 58.2)"/><use xlink:href="#h" transform="matrix(1,0,0,1,12,45.6) translate(94.625 58.2)"/><use xlink:href="#i" transform="matrix(1,0,0,1,12,126.9) translate(54.849999999999994 14.69999999999999)"/><use xlink:href="#j" transform="matrix(1,0,0,1,12,126.9) translate(70.35 14.69999999999999)"/><use xlink:href="#b" transform="matrix(1,0,0,1,12,126.9) translate(24.124999999999993 36.29999999999999)"/><use xlink:href="#k" transform="matrix(1,0,0,1,12,126.9) translate(39.12499999999999 36.29999999999999)"/><use xlink:href="#b" transform="matrix(1,0,0,1,12,126.9) translate(24.17499999999999 57.89999999999999)"/><use xlink:href="#l" transform="matrix(1,0,0,1,12,126.9) translate(39.17499999999999 57.89999999999999)"/><use xlink:href="#b" transform="matrix(1,0,0,1,12,126.9) translate(26.64999999999999 79.5)"/><use xlink:href="#m" transform="matrix(1,0,0,1,12,126.9) translate(41.64999999999999 79.5)"/><path d="M5 307h190v134H5z" stroke="#333" stroke-width="2" fill="#fff"/><path d="M5 344.6h190M5 403.8h190" stroke="#333" stroke-width="2" fill="none"/><use xlink:href="#n" transform="matrix(1,0,0,1,13,315) translate(54.525 14.6)"/><use xlink:href="#b" transform="matrix(1,0,0,1,17,352.6) translate(42.55 14.799999999999999)"/><use xlink:href="#o" transform="matrix(1,0,0,1,17,352.6) translate(57.55 14.799999999999999)"/><use xlink:href="#p" transform="matrix(1,0,0,1,17,352.6) translate(81.5 14.799999999999999)"/><use xlink:href="#b" transform="matrix(1,0,0,1,17,352.6) translate(2.049999999999997 36.4)"/><use xlink:href="#q" transform="matrix(1,0,0,1,17,352.6) translate(17.049999999999997 36.4)"/><use xlink:href="#r" transform="matrix(1,0,0,1,17,352.6) translate(76 36.4)"/><use xlink:href="#i" transform="matrix(1,0,0,1,17,411.8) translate(49.849999999999994 14.6)"/><use xlink:href="#s" transform="matrix(1,0,0,1,17,411.8) translate(65.35 14.6)"/><path d="M100 305.5V246" stroke="#333" fill="none"/><path d="M100.5 306h-1v-.5h1z" fill="#333"/><path d="M100 223.98l12.73 21.52H87.27z" stroke="#333" fill="#fff"/><path d="M10 517h180v113H10z" stroke="#333" stroke-width="2" fill="#fff"/><path d="M10 554.6h180M10 592.2h180" stroke="#333" stroke-width="2" fill="none"/><use xlink:href="#t" transform="matrix(1,0,0,1,18.000000000000043,525) translate(59.099999999999994 14.6)"/><use xlink:href="#b" transform="matrix(1,0,0,1,22.000000000000043,562.6) translate(16.575000000000003 14.6)"/><use xlink:href="#q" transform="matrix(1,0,0,1,22.000000000000043,562.6) translate(31.575000000000003 14.6)"/><use xlink:href="#u" transform="matrix(1,0,0,1,22.000000000000043,562.6) translate(90.525 14.6)"/><path d="M220 307h180v134H220z" stroke="#333" stroke-width="2" fill="#fff"/><path d="M220 344.6h180m-180 59.2h180" stroke="#333" stroke-width="2" fill="none"/><use xlink:href="#v" transform="matrix(1,0,0,1,228,315) translate(41.55 14.6)"/><use xlink:href="#b" transform="matrix(1,0,0,1,232,352.6) translate(20.074999999999996 14.799999999999999)"/><use xlink:href="#q" transform="matrix(1,0,0,1,232,352.6) translate(35.074999999999996 14.799999999999999)"/><use xlink:href="#w" transform="matrix(1,0,0,1,232,352.6) translate(94.025 14.799999999999999)"/><use xlink:href="#b" transform="matrix(1,0,0,1,232,352.6) translate(16.549999999999997 36.4)"/><use xlink:href="#q" transform="matrix(1,0,0,1,232,352.6) translate(31.549999999999997 36.4)"/><use xlink:href="#x" transform="matrix(1,0,0,1,232,352.6) translate(90.5 36.4)"/><use xlink:href="#i" transform="matrix(1,0,0,1,232,411.8) translate(44.849999999999994 14.6)"/><use xlink:href="#s" transform="matrix(1,0,0,1,232,411.8) translate(60.349999999999994 14.6)"/><path d="M214.06 517h180v113h-180z" stroke="#ccc" stroke-width="2" fill="#fff"/><path d="M214.06 554.6h180m-180 37.6h180" stroke="#ccc" stroke-width="2" fill="none"/><use xlink:href="#y" transform="matrix(1,0,0,1,222.06274054618552,525) translate(49.925 14.6)"/><path d="M418.13 517h180v113h-180z" stroke="#ccc" stroke-width="2" fill="#fff"/><path d="M418.13 554.6h180m-180 37.6h180" stroke="#ccc" stroke-width="2" fill="none"/><use xlink:href="#z" transform="matrix(1,0,0,1,426.12548109237105,525) translate(53.025 14.6)"/><path d="M304.06 515.5V491c0-6.63-5.37-12-12-12H112c-6.63 0-12-5.37-12-12v-2" stroke="#ccc" fill="none"/><path d="M304.56 516h-1v-.5h1z" fill="#ccc"/><path d="M100 442.98l12.73 21.52H87.27z" stroke="#ccc" fill="#fff"/><path d="M508.13 515.5V491c0-6.63-5.38-12-12-12H112c-6.63 0-12-5.37-12-12v-2" stroke="#ccc" fill="none"/><path d="M508.63 516h-1v-.5h1z" fill="#ccc"/><path d="M100 442.98l12.73 21.52H87.27z" stroke="#ccc" fill="#fff"/><path d="M310 305.5v-29c0-6.63-5.37-12-12-12H112c-6.63 0-12-5.37-12-12V246" stroke="#333" fill="none"/><path d="M310.5 306h-1v-.5h1z" fill="#333"/><path d="M100 223.98l12.73 21.52H87.27z" stroke="#333" fill="#fff"/><path d="M622.2 517h180v113h-180z" stroke="#ccc" stroke-width="2" fill="#fff"/><path d="M622.2 554.6h180m-180 37.6h180" stroke="#ccc" stroke-width="2" fill="none"/><g><use xlink:href="#A" transform="matrix(1,0,0,1,630.1882216385566,525) translate(43.5 14.6)"/></g><path d="M712.2 515.5V491c0-6.63-5.38-12-12-12H112c-6.63 0-12-5.37-12-12v-2" stroke="#ccc" fill="none"/><path d="M712.7 516h-1v-.5h1z" fill="#ccc"/><path d="M100 442.98l12.73 21.52H87.27z" stroke="#ccc" fill="#fff"/><path d="M820 517h180v113H820z" stroke="#ccc" stroke-width="2" fill="#fff"/><path d="M820 554.6h180m-180 37.6h180" stroke="#ccc" stroke-width="2" fill="none"/><g><use xlink:href="#B" transform="matrix(1,0,0,1,828,525) translate(70 14.6)"/></g><path d="M910 515.5V491c0-6.63-5.37-12-12-12H112c-6.63 0-12-5.37-12-12v-2" stroke="#ccc" fill="none"/><path d="M910.5 516h-1v-.5h1z" fill="#ccc"/><path d="M100 442.98l12.73 21.52H87.27z" stroke="#ccc" fill="#fff"/><path d="M100 515.5V465" stroke="#333" fill="none"/><path d="M100.5 516h-1v-.5h1z" fill="#333"/><path d="M100 442.98l12.73 21.52H87.27z" stroke="#333" fill="#fff"/><path d="M280 633h640v27.4H280z" stroke="#000" stroke-opacity="0" stroke-width="2" fill="#fff" fill-opacity="0"/><g><use xlink:href="#C" transform="matrix(1,0,0,1,285,638) translate(18.599999999999966 14.4)"/><use xlink:href="#D" transform="matrix(1,0,0,1,285,638) translate(53.94999999999997 14.4)"/><use xlink:href="#E" transform="matrix(1,0,0,1,285,638) translate(91.89999999999998 14.4)"/><use xlink:href="#F" transform="matrix(1,0,0,1,285,638) translate(136.89999999999998 14.4)"/><use xlink:href="#G" transform="matrix(1,0,0,1,285,638) translate(156.89999999999998 14.4)"/><use xlink:href="#H" transform="matrix(1,0,0,1,285,638) translate(244.7 14.4)"/><use xlink:href="#I" transform="matrix(1,0,0,1,285,638) translate(279.7 14.4)"/><use xlink:href="#J" transform="matrix(1,0,0,1,285,638) translate(299.7 14.4)"/><use xlink:href="#K" transform="matrix(1,0,0,1,285,638) translate(348.7 14.4)"/><use xlink:href="#L" transform="matrix(1,0,0,1,285,638) translate(373.59999999999997 14.4)"/><use xlink:href="#F" transform="matrix(1,0,0,1,285,638) translate(441.49999999999994 14.4)"/><use xlink:href="#M" transform="matrix(1,0,0,1,285,638) translate(461.49999999999994 14.4)"/><use xlink:href="#N" transform="matrix(1,0,0,1,285,638) translate(491.49999999999994 14.4)"/><use xlink:href="#O" transform="matrix(1,0,0,1,285,638) translate(537.45 14.4)"/></g><path d="M338.13 0h260v156h-260z" stroke="#333" stroke-width="2" fill="#fff"/><path d="M338.13 37.6h260m-260 37.6h260" stroke="#333" stroke-width="2" fill="none"/><g><use xlink:href="#P" transform="matrix(1,0,0,1,346.12548109237105,8) translate(79.525 14.6)"/></g><g><use xlink:href="#i" transform="matrix(1,0,0,1,350.12548109237105,83.2) translate(84.85 14.500000000000002)"/><use xlink:href="#Q" transform="matrix(1,0,0,1,350.12548109237105,83.2) translate(100.35 14.500000000000002)"/><use xlink:href="#i" transform="matrix(1,0,0,1,350.12548109237105,83.2) translate(32.80000000000001 36.1)"/><use xlink:href="#R" transform="matrix(1,0,0,1,350.12548109237105,83.2) translate(48.30000000000001 36.1)"/><use xlink:href="#i" transform="matrix(1,0,0,1,350.12548109237105,83.2) translate(8.349999999999994 57.7)"/><use xlink:href="#S" transform="matrix(1,0,0,1,350.12548109237105,83.2) translate(23.849999999999994 57.7)"/><use xlink:href="#T" transform="matrix(1,0,0,1,350.12548109237105,83.2) translate(173.8 57.7)"/><use xlink:href="#U" transform="matrix(1,0,0,1,350.12548109237105,83.2) translate(202.75 57.7)"/></g><path d="M250.06 78.5h-32.68v-1h32.68zm86.57 0h-48.57v-1h48.57z" fill="#333"/><path d="M337.13 78.5h-.52v-1h.53zM216.88 82.64L202.62 78l14.26-4.64z" fill="#333"/><path d="M217.38 83.32L201 78l16.38-5.32zM204.24 78l12.14 3.95v-7.9z" fill="#333"/><g><use xlink:href="#V" transform="matrix(1,0,0,1,250.06274054618552,67.2) translate(0.004999999999999005 14.4)"/></g><defs><path fill="#333" d="M194-120c59 52 2 134-86 124-53-6-90-18-98-63l31-7c8 30 29 43 70 43 46 0 84-17 71-62-32-43-135-20-137-98-3-89 178-90 191-16l-30 9c-8-48-127-53-127 5 0 53 81 35 115 65" id="W"/><path fill="#333" d="M67-158c15-20 31-36 64-36 94 0 33 127 27 194h-32l25-140c3-38-53-32-70-12C52-117 51-51 37 0H6l51-261h31" id="X"/><path fill="#333" d="M165-48c-4 18 1 34 23 27l-3 20c-29 8-62 0-52-35h-2C116-14 99 4 63 4 30 4 8-16 8-49c0-68 71-67 138-67 10-26 0-56-31-54-26 1-42 9-47 31l-32-5c8-67 160-71 144 15-5 28-9 54-15 81zM42-50c3 52 80 24 89-6 7-12 7-24 11-38-47 1-103-4-100 44" id="Y"/><path fill="#333" d="M67-162c32-53 139-36 121 50C175-51 163 2 97 4 68 4 52-11 42-31 38 6 28 39 22 75H-9l50-265h29c-1 10 0 20-3 28zm89 36c0-26-10-43-35-43-54 0-67 50-69 103-1 29 14 45 42 46 53 0 62-58 62-106" id="Z"/><path fill="#333" d="M111-194c62-3 86 47 72 106H45c-7 38 6 69 45 68 27-1 43-14 53-32l24 11C152-15 129 4 87 4 38 3 12-23 12-71c0-70 32-119 99-123zm44 81c14-66-71-72-95-28-4 8-8 17-11 28h106" id="aa"/><g id="a"><use transform="matrix(0.05,0,0,0.05,0,0)" xlink:href="#W"/><use transform="matrix(0.05,0,0,0.05,12,0)" xlink:href="#X"/><use transform="matrix(0.05,0,0,0.05,22,0)" xlink:href="#Y"/><use transform="matrix(0.05,0,0,0.05,32,0)" xlink:href="#Z"/><use transform="matrix(0.05,0,0,0.05,42,0)" xlink:href="#aa"/></g><path fill="#333" d="M158-156l-14 65h45v19h-49L124 0h-19l15-72H56L41 0H22l15-72H2v-19h39l14-65H11v-19h48l15-71h20l-16 71h64l16-71h19l-16 71h37v19h-40zm-83 0L61-91h63l14-65H75" id="ab"/><use transform="matrix(0.05,0,0,0.05,0,0)" xlink:href="#ab" id="b"/><path fill="#333" d="M30-248c87 1 191-15 191 75 0 78-77 80-158 76V0H30v-248zm33 125c57 0 124 11 124-50 0-59-68-47-124-48v98" id="ac"/><path fill="#333" d="M100-194c62-1 85 37 85 99 1 63-27 99-86 99S16-35 15-95c0-66 28-99 85-99zM99-20c44 1 53-31 53-75 0-43-8-75-51-75s-53 32-53 75 10 74 51 75" id="ad"/><path fill="#333" d="M24-231v-30h32v30H24zM24 0v-190h32V0H24" id="ae"/><path fill="#333" d="M117-194c89-4 53 116 60 194h-32v-121c0-31-8-49-39-48C34-167 62-67 57 0H25l-1-190h30c1 10-1 24 2 32 11-22 29-35 61-36" id="af"/><path fill="#333" d="M59-47c-2 24 18 29 38 22v24C64 9 27 4 27-40v-127H5v-23h24l9-43h21v43h35v23H59v120" id="ag"/><g id="c"><use transform="matrix(0.05,0,0,0.05,0,0)" xlink:href="#ac"/><use transform="matrix(0.05,0,0,0.05,12,0)" xlink:href="#ad"/><use transform="matrix(0.05,0,0,0.05,22,0)" xlink:href="#ae"/><use transform="matrix(0.05,0,0,0.05,25.950000000000003,0)" xlink:href="#af"/><use transform="matrix(0.05,0,0,0.05,35.95,0)" xlink:href="#ag"/></g><path fill="#333" d="M96-169c-40 0-48 33-48 73s9 75 48 75c24 0 41-14 43-38l32 2c-6 37-31 61-74 61-59 0-76-41-82-99-10-93 101-131 147-64 4 7 5 14 7 22l-32 3c-4-21-16-35-41-35" id="ah"/><path fill="#333" d="M100-194c63 0 86 42 84 106H49c0 40 14 67 53 68 26 1 43-12 49-29l28 8c-11 28-37 45-77 45C44 4 14-33 15-96c1-61 26-98 85-98zm52 81c6-60-76-77-97-28-3 7-6 17-6 28h103" id="ai"/><path fill="#333" d="M114-163C36-179 61-72 57 0H25l-1-190h30c1 12-1 29 2 39 6-27 23-49 58-41v29" id="aj"/><g id="d"><use transform="matrix(0.05,0,0,0.05,0,0)" xlink:href="#ah"/><use transform="matrix(0.05,0,0,0.05,9,0)" xlink:href="#ai"/><use transform="matrix(0.05,0,0,0.05,19,0)" xlink:href="#af"/><use transform="matrix(0.05,0,0,0.05,29,0)" xlink:href="#ag"/><use transform="matrix(0.05,0,0,0.05,34,0)" xlink:href="#aj"/><use transform="matrix(0.05,0,0,0.05,39.95,0)" xlink:href="#ai"/></g><path fill="#333" d="M212-179c-10-28-35-45-73-45-59 0-87 40-87 99 0 60 29 101 89 101 43 0 62-24 78-52l27 14C228-24 195 4 139 4 59 4 22-46 18-125c-6-104 99-153 187-111 19 9 31 26 39 46" id="ak"/><path fill="#333" d="M24 0v-261h32V0H24" id="al"/><g id="e"><use transform="matrix(0.05,0,0,0.05,0,0)" xlink:href="#ak"/><use transform="matrix(0.05,0,0,0.05,12.950000000000001,0)" xlink:href="#ad"/><use transform="matrix(0.05,0,0,0.05,22.950000000000003,0)" xlink:href="#al"/><use transform="matrix(0.05,0,0,0.05,26.900000000000002,0)" xlink:href="#ad"/><use transform="matrix(0.05,0,0,0.05,36.900000000000006,0)" xlink:href="#aj"/></g><g id="f"><use transform="matrix(0.05,0,0,0.05,0,0)" xlink:href="#ah"/><use transform="matrix(0.05,0,0,0.05,9,0)" xlink:href="#ad"/><use transform="matrix(0.05,0,0,0.05,19,0)" xlink:href="#al"/><use transform="matrix(0.05,0,0,0.05,22.95,0)" xlink:href="#ad"/><use transform="matrix(0.05,0,0,0.05,32.95,0)" xlink:href="#aj"/></g><path fill="#333" d="M127-220V0H93v-220H8v-28h204v28h-85" id="am"/><path fill="#333" d="M84 4C-5 8 30-112 23-190h32v120c0 31 7 50 39 49 72-2 45-101 50-169h31l1 190h-30c-1-10 1-25-2-33-11 22-28 36-60 37" id="an"/><g id="g"><use transform="matrix(0.05,0,0,0.05,0,0)" xlink:href="#am"/><use transform="matrix(0.05,0,0,0.05,10.3,0)" xlink:href="#an"/><use transform="matrix(0.05,0,0,0.05,20.3,0)" xlink:href="#aj"/><use transform="matrix(0.05,0,0,0.05,26.25,0)" xlink:href="#ag"/><use transform="matrix(0.05,0,0,0.05,31.25,0)" xlink:href="#al"/><use transform="matrix(0.05,0,0,0.05,35.2,0)" xlink:href="#ai"/></g><path fill="#333" d="M85-194c31 0 48 13 60 33l-1-100h32l1 261h-30c-2-10 0-23-3-31C134-8 116 4 85 4 32 4 16-35 15-94c0-66 23-100 70-100zm9 24c-40 0-46 34-46 75 0 40 6 74 45 74 42 0 51-32 51-76 0-42-9-74-50-73" id="ao"/><path fill="#333" d="M108 0H70L1-190h34L89-25l56-165h34" id="ap"/><g id="h"><use transform="matrix(0.05,0,0,0.05,0,0)" xlink:href="#ao"/><use transform="matrix(0.05,0,0,0.05,10,0)" xlink:href="#ai"/><use transform="matrix(0.05,0,0,0.05,20,0)" xlink:href="#ap"/><use transform="matrix(0.05,0,0,0.05,29,0)" xlink:href="#ae"/><use transform="matrix(0.05,0,0,0.05,32.95,0)" xlink:href="#ah"/><use transform="matrix(0.05,0,0,0.05,41.95,0)" xlink:href="#ai"/></g><path fill="#333" d="M118-107v75H92v-75H18v-26h74v-75h26v75h74v26h-74" id="aq"/><use transform="matrix(0.05,0,0,0.05,0,0)" xlink:href="#aq" id="i"/><path fill="#333" d="M141-36C126-15 110 5 73 4 37 3 15-17 15-53c-1-64 63-63 125-63 3-35-9-54-41-54-24 1-41 7-42 31l-33-3c5-37 33-52 76-52 45 0 72 20 72 64v82c-1 20 7 32 28 27v20c-31 9-61-2-59-35zM48-53c0 20 12 33 32 33 41-3 63-29 60-74-43 2-92-5-92 41" id="ar"/><path fill="#333" d="M206 0h-36l-40-164L89 0H53L-1-190h32L70-26l43-164h34l41 164 42-164h31" id="as"/><path fill="#333" d="M87 75C49 33 22-17 22-94c0-76 28-126 65-167h31c-38 41-64 92-64 168S80 34 118 75H87" id="at"/><path fill="#333" d="M33-261c38 41 65 92 65 168S71 34 33 75H2C39 34 66-17 66-93S39-220 2-261h31" id="au"/><g id="j"><use transform="matrix(0.05,0,0,0.05,0,0)" xlink:href="#ao"/><use transform="matrix(0.05,0,0,0.05,10,0)" xlink:href="#aj"/><use transform="matrix(0.05,0,0,0.05,15.949999999999998,0)" xlink:href="#ar"/><use transform="matrix(0.05,0,0,0.05,25.950000000000003,0)" xlink:href="#as"/><use transform="matrix(0.05,0,0,0.05,38.9,0)" xlink:href="#at"/><use transform="matrix(0.05,0,0,0.05,44.85,0)" xlink:href="#au"/></g><path fill="#333" d="M210-169c-67 3-38 105-44 169h-31v-121c0-29-5-50-35-48C34-165 62-65 56 0H25l-1-190h30c1 10-1 24 2 32 10-44 99-50 107 0 11-21 27-35 58-36 85-2 47 119 55 194h-31v-121c0-29-5-49-35-48" id="av"/><path fill="#333" d="M185-189c-5-48-123-54-124 2 14 75 158 14 163 119 3 78-121 87-175 55-17-10-28-26-33-46l33-7c5 56 141 63 141-1 0-78-155-14-162-118-5-82 145-84 179-34 5 7 8 16 11 25" id="aw"/><g id="k"><use transform="matrix(0.05,0,0,0.05,0,0)" xlink:href="#av"/><use transform="matrix(0.05,0,0,0.05,14.950000000000001,0)" xlink:href="#ad"/><use transform="matrix(0.05,0,0,0.05,24.950000000000003,0)" xlink:href="#ap"/><use transform="matrix(0.05,0,0,0.05,33.95,0)" xlink:href="#ai"/><use transform="matrix(0.05,0,0,0.05,43.95,0)" xlink:href="#am"/><use transform="matrix(0.05,0,0,0.05,52.900000000000006,0)" xlink:href="#ad"/><use transform="matrix(0.05,0,0,0.05,62.900000000000006,0)" xlink:href="#aw"/><use transform="matrix(0.05,0,0,0.05,74.9,0)" xlink:href="#ag"/><use transform="matrix(0.05,0,0,0.05,79.9,0)" xlink:href="#ar"/><use transform="matrix(0.05,0,0,0.05,89.9,0)" xlink:href="#aj"/><use transform="matrix(0.05,0,0,0.05,95.85000000000001,0)" xlink:href="#ag"/><use transform="matrix(0.05,0,0,0.05,100.85000000000001,0)" xlink:href="#at"/><use transform="matrix(0.05,0,0,0.05,106.80000000000001,0)" xlink:href="#au"/></g><path fill="#333" d="M135-143c-3-34-86-38-87 0 15 53 115 12 119 90S17 21 10-45l28-5c4 36 97 45 98 0-10-56-113-15-118-90-4-57 82-63 122-42 12 7 21 19 24 35" id="ax"/><path fill="#333" d="M30-248c118-7 216 8 213 122C240-48 200 0 122 0H30v-248zM63-27c89 8 146-16 146-99s-60-101-146-95v194" id="ay"/><path fill="#333" d="M177-190C167-65 218 103 67 71c-23-6-38-20-44-43l32-5c15 47 100 32 89-28v-30C133-14 115 1 83 1 29 1 15-40 15-95c0-56 16-97 71-98 29-1 48 16 59 35 1-10 0-23 2-32h30zM94-22c36 0 50-32 50-73 0-42-14-75-50-75-39 0-46 34-46 75s6 73 46 73" id="az"/><g id="l"><use transform="matrix(0.05,0,0,0.05,0,0)" xlink:href="#ax"/><use transform="matrix(0.05,0,0,0.05,9,0)" xlink:href="#ag"/><use transform="matrix(0.05,0,0,0.05,14,0)" xlink:href="#ar"/><use transform="matrix(0.05,0,0,0.05,24,0)" xlink:href="#aj"/><use transform="matrix(0.05,0,0,0.05,29.950000000000003,0)" xlink:href="#ag"/><use transform="matrix(0.05,0,0,0.05,34.95,0)" xlink:href="#ay"/><use transform="matrix(0.05,0,0,0.05,47.900000000000006,0)" xlink:href="#aj"/><use transform="matrix(0.05,0,0,0.05,53.85,0)" xlink:href="#ar"/><use transform="matrix(0.05,0,0,0.05,63.85,0)" xlink:href="#as"/><use transform="matrix(0.05,0,0,0.05,76.80000000000001,0)" xlink:href="#ae"/><use transform="matrix(0.05,0,0,0.05,80.75000000000001,0)" xlink:href="#af"/><use transform="matrix(0.05,0,0,0.05,90.75000000000001,0)" xlink:href="#az"/><use transform="matrix(0.05,0,0,0.05,100.75000000000001,0)" xlink:href="#at"/><use transform="matrix(0.05,0,0,0.05,106.7,0)" xlink:href="#au"/></g><g id="m"><use transform="matrix(0.05,0,0,0.05,0,0)" xlink:href="#ai"/><use transform="matrix(0.05,0,0,0.05,10,0)" xlink:href="#af"/><use transform="matrix(0.05,0,0,0.05,20,0)" xlink:href="#ao"/><use transform="matrix(0.05,0,0,0.05,30,0)" xlink:href="#ay"/><use transform="matrix(0.05,0,0,0.05,42.95,0)" xlink:href="#aj"/><use transform="matrix(0.05,0,0,0.05,48.900000000000006,0)" xlink:href="#ar"/><use transform="matrix(0.05,0,0,0.05,58.900000000000006,0)" xlink:href="#as"/><use transform="matrix(0.05,0,0,0.05,71.85000000000001,0)" xlink:href="#ae"/><use transform="matrix(0.05,0,0,0.05,75.80000000000001,0)" xlink:href="#af"/><use transform="matrix(0.05,0,0,0.05,85.80000000000001,0)" xlink:href="#az"/><use transform="matrix(0.05,0,0,0.05,95.80000000000001,0)" xlink:href="#at"/><use transform="matrix(0.05,0,0,0.05,101.75000000000001,0)" xlink:href="#au"/></g><path fill="#333" d="M179-190L93 31C79 59 56 82 12 73V49c39 6 53-20 64-50L1-190h34L92-34l54-156h33" id="aA"/><g id="n"><use transform="matrix(0.05,0,0,0.05,0,0)" xlink:href="#ac"/><use transform="matrix(0.05,0,0,0.05,12,0)" xlink:href="#ad"/><use transform="matrix(0.05,0,0,0.05,22,0)" xlink:href="#al"/><use transform="matrix(0.05,0,0,0.05,25.950000000000003,0)" xlink:href="#aA"/><use transform="matrix(0.05,0,0,0.05,34.95,0)" xlink:href="#az"/><use transform="matrix(0.05,0,0,0.05,44.95,0)" xlink:href="#ad"/><use transform="matrix(0.05,0,0,0.05,54.95,0)" xlink:href="#af"/></g><g id="o"><use transform="matrix(0.05,0,0,0.05,0,0)" xlink:href="#ae"/><use transform="matrix(0.05,0,0,0.05,3.95,0)" xlink:href="#af"/><use transform="matrix(0.05,0,0,0.05,13.949999999999998,0)" xlink:href="#ag"/></g><g id="p"><use transform="matrix(0.05,0,0,0.05,0,0)" xlink:href="#ax"/><use transform="matrix(0.05,0,0,0.05,9,0)" xlink:href="#ae"/><use transform="matrix(0.05,0,0,0.05,12.949999999999998,0)" xlink:href="#ao"/><use transform="matrix(0.05,0,0,0.05,22.95,0)" xlink:href="#ai"/><use transform="matrix(0.05,0,0,0.05,32.95,0)" xlink:href="#ax"/></g><path fill="#333" d="M115-194c53 0 69 39 70 98 0 66-23 100-70 100C84 3 66-7 56-30L54 0H23l1-261h32v101c10-23 28-34 59-34zm-8 174c40 0 45-34 45-75 0-40-5-75-45-74-42 0-51 32-51 76 0 43 10 73 51 73" id="aB"/><g id="q"><use transform="matrix(0.05,0,0,0.05,0,0)" xlink:href="#ao"/><use transform="matrix(0.05,0,0,0.05,10,0)" xlink:href="#ad"/><use transform="matrix(0.05,0,0,0.05,20,0)" xlink:href="#an"/><use transform="matrix(0.05,0,0,0.05,30,0)" xlink:href="#aB"/><use transform="matrix(0.05,0,0,0.05,40,0)" xlink:href="#al"/><use transform="matrix(0.05,0,0,0.05,43.95,0)" xlink:href="#ai"/></g><path fill="#333" d="M30 0v-248h33v221h125V0H30" id="aC"/><path fill="#333" d="M106-169C34-169 62-67 57 0H25v-261h32l-1 103c12-21 28-36 61-36 89 0 53 116 60 194h-32v-121c2-32-8-49-39-48" id="aD"/><g id="r"><use transform="matrix(0.05,0,0,0.05,0,0)" xlink:href="#ax"/><use transform="matrix(0.05,0,0,0.05,9,0)" xlink:href="#ae"/><use transform="matrix(0.05,0,0,0.05,12.949999999999998,0)" xlink:href="#ao"/><use transform="matrix(0.05,0,0,0.05,22.95,0)" xlink:href="#ai"/><use transform="matrix(0.05,0,0,0.05,32.95,0)" xlink:href="#aC"/><use transform="matrix(0.05,0,0,0.05,42.95,0)" xlink:href="#ai"/><use transform="matrix(0.05,0,0,0.05,52.95,0)" xlink:href="#af"/><use transform="matrix(0.05,0,0,0.05,62.95,0)" xlink:href="#az"/><use transform="matrix(0.05,0,0,0.05,72.95,0)" xlink:href="#ag"/><use transform="matrix(0.05,0,0,0.05,77.95,0)" xlink:href="#aD"/></g><g id="s"><use transform="matrix(0.05,0,0,0.05,0,0)" xlink:href="#ao"/><use transform="matrix(0.05,0,0,0.05,10,0)" xlink:href="#aj"/><use transform="matrix(0.05,0,0,0.05,15.949999999999998,0)" xlink:href="#ar"/><use transform="matrix(0.05,0,0,0.05,25.950000000000003,0)" xlink:href="#as"/><use transform="matrix(0.05,0,0,0.05,38.9,0)" xlink:href="#at"/><use transform="matrix(0.05,0,0,0.05,44.85,0)" xlink:href="#au"/></g><g id="t"><use transform="matrix(0.05,0,0,0.05,0,0)" xlink:href="#ak"/><use transform="matrix(0.05,0,0,0.05,12.950000000000001,0)" xlink:href="#ae"/><use transform="matrix(0.05,0,0,0.05,16.900000000000002,0)" xlink:href="#aj"/><use transform="matrix(0.05,0,0,0.05,22.85,0)" xlink:href="#ah"/><use transform="matrix(0.05,0,0,0.05,31.85,0)" xlink:href="#al"/><use transform="matrix(0.05,0,0,0.05,35.800000000000004,0)" xlink:href="#ai"/></g><g id="u"><use transform="matrix(0.05,0,0,0.05,0,0)" xlink:href="#aj"/><use transform="matrix(0.05,0,0,0.05,5.95,0)" xlink:href="#ar"/><use transform="matrix(0.05,0,0,0.05,15.949999999999998,0)" xlink:href="#ao"/><use transform="matrix(0.05,0,0,0.05,25.950000000000003,0)" xlink:href="#ae"/><use transform="matrix(0.05,0,0,0.05,29.899999999999995,0)" xlink:href="#an"/><use transform="matrix(0.05,0,0,0.05,39.9,0)" xlink:href="#ax"/></g><path fill="#333" d="M233-177c-1 41-23 64-60 70L243 0h-38l-65-103H63V0H30v-248c88 3 205-21 203 71zM63-129c60-2 137 13 137-47 0-61-80-42-137-45v92" id="aE"/><g id="v"><use transform="matrix(0.05,0,0,0.05,0,0)" xlink:href="#aE"/><use transform="matrix(0.05,0,0,0.05,12.950000000000001,0)" xlink:href="#ai"/><use transform="matrix(0.05,0,0,0.05,22.950000000000003,0)" xlink:href="#ah"/><use transform="matrix(0.05,0,0,0.05,31.950000000000003,0)" xlink:href="#ag"/><use transform="matrix(0.05,0,0,0.05,36.95,0)" xlink:href="#ar"/><use transform="matrix(0.05,0,0,0.05,46.95,0)" xlink:href="#af"/><use transform="matrix(0.05,0,0,0.05,56.95,0)" xlink:href="#az"/><use transform="matrix(0.05,0,0,0.05,66.95,0)" xlink:href="#al"/><use transform="matrix(0.05,0,0,0.05,70.9,0)" xlink:href="#ai"/></g><g id="w"><use transform="matrix(0.05,0,0,0.05,0,0)" xlink:href="#as"/><use transform="matrix(0.05,0,0,0.05,12.950000000000001,0)" xlink:href="#ae"/><use transform="matrix(0.05,0,0,0.05,16.900000000000002,0)" xlink:href="#ao"/><use transform="matrix(0.05,0,0,0.05,26.900000000000002,0)" xlink:href="#ag"/><use transform="matrix(0.05,0,0,0.05,31.900000000000002,0)" xlink:href="#aD"/></g><g id="x"><use transform="matrix(0.05,0,0,0.05,0,0)" xlink:href="#aD"/><use transform="matrix(0.05,0,0,0.05,10,0)" xlink:href="#ai"/><use transform="matrix(0.05,0,0,0.05,20,0)" xlink:href="#ae"/><use transform="matrix(0.05,0,0,0.05,23.95,0)" xlink:href="#az"/><use transform="matrix(0.05,0,0,0.05,33.95,0)" xlink:href="#aD"/><use transform="matrix(0.05,0,0,0.05,43.95,0)" xlink:href="#ag"/></g><path fill="#b2b2b2" d="M127-220V0H93v-220H8v-28h204v28h-85" id="aF"/><path fill="#b2b2b2" d="M114-163C36-179 61-72 57 0H25l-1-190h30c1 12-1 29 2 39 6-27 23-49 58-41v29" id="aG"/><path fill="#b2b2b2" d="M24-231v-30h32v30H24zM24 0v-190h32V0H24" id="aH"/><path fill="#b2b2b2" d="M141-36C126-15 110 5 73 4 37 3 15-17 15-53c-1-64 63-63 125-63 3-35-9-54-41-54-24 1-41 7-42 31l-33-3c5-37 33-52 76-52 45 0 72 20 72 64v82c-1 20 7 32 28 27v20c-31 9-61-2-59-35zM48-53c0 20 12 33 32 33 41-3 63-29 60-74-43 2-92-5-92 41" id="aI"/><path fill="#b2b2b2" d="M117-194c89-4 53 116 60 194h-32v-121c0-31-8-49-39-48C34-167 62-67 57 0H25l-1-190h30c1 10-1 24 2 32 11-22 29-35 61-36" id="aJ"/><path fill="#b2b2b2" d="M177-190C167-65 218 103 67 71c-23-6-38-20-44-43l32-5c15 47 100 32 89-28v-30C133-14 115 1 83 1 29 1 15-40 15-95c0-56 16-97 71-98 29-1 48 16 59 35 1-10 0-23 2-32h30zM94-22c36 0 50-32 50-73 0-42-14-75-50-75-39 0-46 34-46 75s6 73 46 73" id="aK"/><path fill="#b2b2b2" d="M24 0v-261h32V0H24" id="aL"/><path fill="#b2b2b2" d="M100-194c63 0 86 42 84 106H49c0 40 14 67 53 68 26 1 43-12 49-29l28 8c-11 28-37 45-77 45C44 4 14-33 15-96c1-61 26-98 85-98zm52 81c6-60-76-77-97-28-3 7-6 17-6 28h103" id="aM"/><g id="y"><use transform="matrix(0.05,0,0,0.05,0,0)" xlink:href="#aF"/><use transform="matrix(0.05,0,0,0.05,10.3,0)" xlink:href="#aG"/><use transform="matrix(0.05,0,0,0.05,16.25,0)" xlink:href="#aH"/><use transform="matrix(0.05,0,0,0.05,20.2,0)" xlink:href="#aI"/><use transform="matrix(0.05,0,0,0.05,30.200000000000003,0)" xlink:href="#aJ"/><use transform="matrix(0.05,0,0,0.05,40.2,0)" xlink:href="#aK"/><use transform="matrix(0.05,0,0,0.05,50.2,0)" xlink:href="#aL"/><use transform="matrix(0.05,0,0,0.05,54.150000000000006,0)" xlink:href="#aM"/></g><path fill="#b2b2b2" d="M185-189c-5-48-123-54-124 2 14 75 158 14 163 119 3 78-121 87-175 55-17-10-28-26-33-46l33-7c5 56 141 63 141-1 0-78-155-14-162-118-5-82 145-84 179-34 5 7 8 16 11 25" id="aN"/><path fill="#b2b2b2" d="M145-31C134-9 116 4 85 4 32 4 16-35 15-94c0-59 17-99 70-100 32-1 48 14 60 33 0-11-1-24 2-32h30l-1 268h-32zM93-21c41 0 51-33 51-76s-8-73-50-73c-40 0-46 35-46 75s5 74 45 74" id="aO"/><path fill="#b2b2b2" d="M84 4C-5 8 30-112 23-190h32v120c0 31 7 50 39 49 72-2 45-101 50-169h31l1 190h-30c-1-10 1-25-2-33-11 22-28 36-60 37" id="aP"/><g id="z"><use transform="matrix(0.05,0,0,0.05,0,0)" xlink:href="#aN"/><use transform="matrix(0.05,0,0,0.05,12,0)" xlink:href="#aO"/><use transform="matrix(0.05,0,0,0.05,22,0)" xlink:href="#aP"/><use transform="matrix(0.05,0,0,0.05,32,0)" xlink:href="#aI"/><use transform="matrix(0.05,0,0,0.05,42,0)" xlink:href="#aG"/><use transform="matrix(0.05,0,0,0.05,47.95,0)" xlink:href="#aM"/></g><path fill="#b2b2b2" d="M30-248c87 1 191-15 191 75 0 78-77 80-158 76V0H30v-248zm33 125c57 0 124 11 124-50 0-59-68-47-124-48v98" id="aQ"/><path fill="#b2b2b2" d="M59-47c-2 24 18 29 38 22v24C64 9 27 4 27-40v-127H5v-23h24l9-43h21v43h35v23H59v120" id="aR"/><path fill="#b2b2b2" d="M100-194c62-1 85 37 85 99 1 63-27 99-86 99S16-35 15-95c0-66 28-99 85-99zM99-20c44 1 53-31 53-75 0-43-8-75-51-75s-53 32-53 75 10 74 51 75" id="aS"/><g id="A"><use transform="matrix(0.05,0,0,0.05,0,0)" xlink:href="#aQ"/><use transform="matrix(0.05,0,0,0.05,12,0)" xlink:href="#aM"/><use transform="matrix(0.05,0,0,0.05,22,0)" xlink:href="#aJ"/><use transform="matrix(0.05,0,0,0.05,32,0)" xlink:href="#aR"/><use transform="matrix(0.05,0,0,0.05,37,0)" xlink:href="#aI"/><use transform="matrix(0.05,0,0,0.05,47,0)" xlink:href="#aK"/><use transform="matrix(0.05,0,0,0.05,57,0)" xlink:href="#aS"/><use transform="matrix(0.05,0,0,0.05,67,0)" xlink:href="#aJ"/></g><path fill="#b2b2b2" d="M96-169c-40 0-48 33-48 73s9 75 48 75c24 0 41-14 43-38l32 2c-6 37-31 61-74 61-59 0-76-41-82-99-10-93 101-131 147-64 4 7 5 14 7 22l-32 3c-4-21-16-35-41-35" id="aT"/><g id="B"><use transform="matrix(0.05,0,0,0.05,0,0)" xlink:href="#aM"/><use transform="matrix(0.05,0,0,0.05,10,0)" xlink:href="#aR"/><use transform="matrix(0.05,0,0,0.05,15,0)" xlink:href="#aT"/></g><path fill="#333" d="M137-103V0h-34v-103L8-248h37l75 118 75-118h37" id="aU"/><g id="C"><use transform="matrix(0.05,0,0,0.05,0,0)" xlink:href="#aU"/><use transform="matrix(0.05,0,0,0.05,10.35,0)" xlink:href="#ad"/><use transform="matrix(0.05,0,0,0.05,20.35,0)" xlink:href="#an"/></g><g id="D"><use transform="matrix(0.05,0,0,0.05,0,0)" xlink:href="#ad"/><use transform="matrix(0.05,0,0,0.05,10,0)" xlink:href="#af"/><use transform="matrix(0.05,0,0,0.05,20,0)" xlink:href="#al"/><use transform="matrix(0.05,0,0,0.05,23.95,0)" xlink:href="#aA"/></g><g id="E"><use transform="matrix(0.05,0,0,0.05,0,0)" xlink:href="#af"/><use transform="matrix(0.05,0,0,0.05,10,0)" xlink:href="#ai"/><use transform="matrix(0.05,0,0,0.05,20,0)" xlink:href="#ai"/><use transform="matrix(0.05,0,0,0.05,30,0)" xlink:href="#ao"/></g><g id="F"><use transform="matrix(0.05,0,0,0.05,0,0)" xlink:href="#ag"/><use transform="matrix(0.05,0,0,0.05,5,0)" xlink:href="#ad"/></g><path fill="#333" d="M115-194c55 1 70 41 70 98S169 2 115 4C84 4 66-9 55-30l1 105H24l-1-265h31l2 30c10-21 28-34 59-34zm-8 174c40 0 45-34 45-75s-6-73-45-74c-42 0-51 32-51 76 0 43 10 73 51 73" id="aV"/><g id="G"><use transform="matrix(0.05,0,0,0.05,0,0)" xlink:href="#ae"/><use transform="matrix(0.05,0,0,0.05,3.95,0)" xlink:href="#av"/><use transform="matrix(0.05,0,0,0.05,18.900000000000002,0)" xlink:href="#aV"/><use transform="matrix(0.05,0,0,0.05,28.900000000000002,0)" xlink:href="#al"/><use transform="matrix(0.05,0,0,0.05,32.85,0)" xlink:href="#ai"/><use transform="matrix(0.05,0,0,0.05,42.85,0)" xlink:href="#av"/><use transform="matrix(0.05,0,0,0.05,57.800000000000004,0)" xlink:href="#ai"/><use transform="matrix(0.05,0,0,0.05,67.80000000000001,0)" xlink:href="#af"/><use transform="matrix(0.05,0,0,0.05,77.80000000000001,0)" xlink:href="#ag"/></g><g id="H"><use transform="matrix(0.05,0,0,0.05,0,0)" xlink:href="#ad"/><use transform="matrix(0.05,0,0,0.05,10,0)" xlink:href="#af"/><use transform="matrix(0.05,0,0,0.05,20,0)" xlink:href="#ai"/></g><path fill="#333" d="M101-234c-31-9-42 10-38 44h38v23H63V0H32v-167H5v-23h27c-7-52 17-82 69-68v24" id="aW"/><g id="I"><use transform="matrix(0.05,0,0,0.05,0,0)" xlink:href="#ad"/><use transform="matrix(0.05,0,0,0.05,10,0)" xlink:href="#aW"/></g><g id="J"><use transform="matrix(0.05,0,0,0.05,0,0)" xlink:href="#ag"/><use transform="matrix(0.05,0,0,0.05,5,0)" xlink:href="#aD"/><use transform="matrix(0.05,0,0,0.05,15,0)" xlink:href="#ai"/><use transform="matrix(0.05,0,0,0.05,25,0)" xlink:href="#ax"/><use transform="matrix(0.05,0,0,0.05,34,0)" xlink:href="#ai"/></g><g id="K"><use transform="matrix(0.05,0,0,0.05,0,0)" xlink:href="#at"/><use transform="matrix(0.05,0,0,0.05,5.95,0)" xlink:href="#ae"/><use transform="matrix(0.05,0,0,0.05,9.9,0)" xlink:href="#af"/></g><g id="L"><use transform="matrix(0.05,0,0,0.05,0,0)" xlink:href="#ar"/><use transform="matrix(0.05,0,0,0.05,10,0)" xlink:href="#ao"/><use transform="matrix(0.05,0,0,0.05,20,0)" xlink:href="#ao"/><use transform="matrix(0.05,0,0,0.05,30,0)" xlink:href="#ae"/><use transform="matrix(0.05,0,0,0.05,33.95,0)" xlink:href="#ag"/><use transform="matrix(0.05,0,0,0.05,38.95,0)" xlink:href="#ae"/><use transform="matrix(0.05,0,0,0.05,42.900000000000006,0)" xlink:href="#ad"/><use transform="matrix(0.05,0,0,0.05,52.900000000000006,0)" xlink:href="#af"/></g><g id="M"><use transform="matrix(0.05,0,0,0.05,0,0)" xlink:href="#ag"/><use transform="matrix(0.05,0,0,0.05,5,0)" xlink:href="#aD"/><use transform="matrix(0.05,0,0,0.05,15,0)" xlink:href="#ai"/></g><g id="N"><use transform="matrix(0.05,0,0,0.05,0,0)" xlink:href="#ad"/><use transform="matrix(0.05,0,0,0.05,10,0)" xlink:href="#ag"/><use transform="matrix(0.05,0,0,0.05,15,0)" xlink:href="#aD"/><use transform="matrix(0.05,0,0,0.05,25,0)" xlink:href="#ai"/><use transform="matrix(0.05,0,0,0.05,35,0)" xlink:href="#aj"/></g><g id="O"><use transform="matrix(0.05,0,0,0.05,0,0)" xlink:href="#ah"/><use transform="matrix(0.05,0,0,0.05,9,0)" xlink:href="#aD"/><use transform="matrix(0.05,0,0,0.05,19,0)" xlink:href="#ar"/><use transform="matrix(0.05,0,0,0.05,29,0)" xlink:href="#af"/><use transform="matrix(0.05,0,0,0.05,39,0)" xlink:href="#az"/><use transform="matrix(0.05,0,0,0.05,49,0)" xlink:href="#ai"/><use transform="matrix(0.05,0,0,0.05,59,0)" xlink:href="#ax"/><use transform="matrix(0.05,0,0,0.05,68,0)" xlink:href="#au"/></g><g id="P"><use transform="matrix(0.05,0,0,0.05,0,0)" xlink:href="#aw"/><use transform="matrix(0.05,0,0,0.05,12,0)" xlink:href="#aD"/><use transform="matrix(0.05,0,0,0.05,22,0)" xlink:href="#ar"/><use transform="matrix(0.05,0,0,0.05,32,0)" xlink:href="#aV"/><use transform="matrix(0.05,0,0,0.05,42,0)" xlink:href="#ai"/><use transform="matrix(0.05,0,0,0.05,52,0)" xlink:href="#am"/><use transform="matrix(0.05,0,0,0.05,60.95,0)" xlink:href="#ai"/><use transform="matrix(0.05,0,0,0.05,70.95,0)" xlink:href="#ax"/><use transform="matrix(0.05,0,0,0.05,79.95,0)" xlink:href="#ag"/></g><g id="Q"><use transform="matrix(0.05,0,0,0.05,0,0)" xlink:href="#av"/><use transform="matrix(0.05,0,0,0.05,14.950000000000001,0)" xlink:href="#ar"/><use transform="matrix(0.05,0,0,0.05,24.950000000000003,0)" xlink:href="#ae"/><use transform="matrix(0.05,0,0,0.05,28.900000000000002,0)" xlink:href="#af"/><use transform="matrix(0.05,0,0,0.05,38.900000000000006,0)" xlink:href="#at"/><use transform="matrix(0.05,0,0,0.05,44.85000000000001,0)" xlink:href="#au"/></g><g id="R"><use transform="matrix(0.05,0,0,0.05,0,0)" xlink:href="#ao"/><use transform="matrix(0.05,0,0,0.05,10,0)" xlink:href="#aj"/><use transform="matrix(0.05,0,0,0.05,15.949999999999998,0)" xlink:href="#ar"/><use transform="matrix(0.05,0,0,0.05,25.950000000000003,0)" xlink:href="#as"/><use transform="matrix(0.05,0,0,0.05,38.9,0)" xlink:href="#am"/><use transform="matrix(0.05,0,0,0.05,47.85,0)" xlink:href="#ar"/><use transform="matrix(0.05,0,0,0.05,57.85,0)" xlink:href="#aj"/><use transform="matrix(0.05,0,0,0.05,63.800000000000004,0)" xlink:href="#az"/><use transform="matrix(0.05,0,0,0.05,73.80000000000001,0)" xlink:href="#ai"/><use transform="matrix(0.05,0,0,0.05,83.80000000000001,0)" xlink:href="#ag"/><use transform="matrix(0.05,0,0,0.05,88.80000000000001,0)" xlink:href="#ax"/><use transform="matrix(0.05,0,0,0.05,97.80000000000001,0)" xlink:href="#at"/><use transform="matrix(0.05,0,0,0.05,103.75,0)" xlink:href="#am"/><use transform="matrix(0.05,0,0,0.05,114.05000000000001,0)" xlink:href="#an"/><use transform="matrix(0.05,0,0,0.05,124.05000000000001,0)" xlink:href="#aj"/><use transform="matrix(0.05,0,0,0.05,130,0)" xlink:href="#ag"/><use transform="matrix(0.05,0,0,0.05,135,0)" xlink:href="#al"/><use transform="matrix(0.05,0,0,0.05,138.95,0)" xlink:href="#ai"/><use transform="matrix(0.05,0,0,0.05,148.95,0)" xlink:href="#au"/></g><path fill="#333" d="M68-38c1 34 0 65-14 84H32c9-13 17-26 17-46H33v-38h35" id="aX"/><g id="S"><use transform="matrix(0.05,0,0,0.05,0,0)" xlink:href="#ao"/><use transform="matrix(0.05,0,0,0.05,10,0)" xlink:href="#aj"/><use transform="matrix(0.05,0,0,0.05,15.949999999999998,0)" xlink:href="#ar"/><use transform="matrix(0.05,0,0,0.05,25.950000000000003,0)" xlink:href="#as"/><use transform="matrix(0.05,0,0,0.05,38.9,0)" xlink:href="#am"/><use transform="matrix(0.05,0,0,0.05,47.85,0)" xlink:href="#ar"/><use transform="matrix(0.05,0,0,0.05,57.85,0)" xlink:href="#aj"/><use transform="matrix(0.05,0,0,0.05,63.800000000000004,0)" xlink:href="#az"/><use transform="matrix(0.05,0,0,0.05,73.80000000000001,0)" xlink:href="#ai"/><use transform="matrix(0.05,0,0,0.05,83.80000000000001,0)" xlink:href="#ag"/><use transform="matrix(0.05,0,0,0.05,88.80000000000001,0)" xlink:href="#at"/><use transform="matrix(0.05,0,0,0.05,94.75000000000001,0)" xlink:href="#am"/><use transform="matrix(0.05,0,0,0.05,105.05000000000001,0)" xlink:href="#an"/><use transform="matrix(0.05,0,0,0.05,115.05000000000001,0)" xlink:href="#aj"/><use transform="matrix(0.05,0,0,0.05,121,0)" xlink:href="#ag"/><use transform="matrix(0.05,0,0,0.05,126,0)" xlink:href="#al"/><use transform="matrix(0.05,0,0,0.05,129.95000000000002,0)" xlink:href="#ai"/><use transform="matrix(0.05,0,0,0.05,139.95000000000002,0)" xlink:href="#aX"/></g><g id="T"><use transform="matrix(0.05,0,0,0.05,0,0)" xlink:href="#ae"/><use transform="matrix(0.05,0,0,0.05,3.95,0)" xlink:href="#af"/><use transform="matrix(0.05,0,0,0.05,13.949999999999998,0)" xlink:href="#ag"/><use transform="matrix(0.05,0,0,0.05,18.95,0)" xlink:href="#aX"/></g><g id="U"><use transform="matrix(0.05,0,0,0.05,0,0)" xlink:href="#ae"/><use transform="matrix(0.05,0,0,0.05,3.95,0)" xlink:href="#af"/><use transform="matrix(0.05,0,0,0.05,13.949999999999998,0)" xlink:href="#ag"/><use transform="matrix(0.05,0,0,0.05,18.95,0)" xlink:href="#au"/></g><g id="V"><use transform="matrix(0.05,0,0,0.05,0,0)" xlink:href="#an"/><use transform="matrix(0.05,0,0,0.05,10,0)" xlink:href="#ax"/><use transform="matrix(0.05,0,0,0.05,19,0)" xlink:href="#ai"/><use transform="matrix(0.05,0,0,0.05,29,0)" xlink:href="#ax"/></g></defs></g></svg>